PathFileType  4	(X/Y/Z) C:\Users\antoi\Documents\MyRepositories\mobilecap\ResultsAnalysis
DataRate	CameraRate	NumFrames	NumMarkers	Units	OrigDataRate	OrigDataStartFrame	OrigNumFrames
100.0	100.0	5	51	mm	100.0	1	261
Frame#	Time	r_knee			r_shank_antsup			r_ankle			r_calc			r_5meta			r_toe			L_knee			L_shank_antsup			L_ankle			L_calc			L_5meta			L_toe			r_sh2			r_sh3			r_sh4			L_sh2			L_sh3			r_thigh1			r_thigh2			r_thigh3			r_thigh4			r_thigh5			L_thigh1			L_thigh2			L_thigh3			L_thigh4			r.ASIS			r.PSIS			L.ASIS			L.PSIS			C7			R_Shoulder			L_Shoulder			R_Sternum			L_Sternum			R_humerus			R_elbow_med			R_elbow_lat			R_forearm			R_wrist_radius			R_wrist_ulna			L_humerus			L_elbow_med			L_elbow_lat			L_forearm			L_wrist_radius			L_wrist_ulna			R_HJC			L_HJC			R_HJC_reg			L_HJC_reg			
		X1	Y1	Z1	X2	Y2	Z2	X3	Y3	Z3	X4	Y4	Z4	X5	Y5	Z5	X6	Y6	Z6	X7	Y7	Z7	X8	Y8	Z8	X9	Y9	Z9	X10	Y10	Z10	X11	Y11	Z11	X12	Y12	Z12	X13	Y13	Z13	X14	Y14	Z14	X15	Y15	Z15	X16	Y16	Z16	X17	Y17	Z17	X18	Y18	Z18	X19	Y19	Z19	X20	Y20	Z20	X21	Y21	Z21	X22	Y22	Z22	X23	Y23	Z23	X24	Y24	Z24	X25	Y25	Z25	X26	Y26	Z26	X27	Y27	Z27	X28	Y28	Z28	X29	Y29	Z29	X30	Y30	Z30	X31	Y31	Z31	X32	Y32	Z32	X33	Y33	Z33	X34	Y34	Z34	X35	Y35	Z35	X36	Y36	Z36	X37	Y37	Z37	X38	Y38	Z38	X39	Y39	Z39	X40	Y40	Z40	X41	Y41	Z41	X42	Y42	Z42	X43	Y43	Z43	X44	Y44	Z44	X45	Y45	Z45	X46	Y46	Z46	X47	Y47	Z47	X48	Y48	Z48	X49	Y49	Z49	X50	Y50	Z50	X51	Y51	Z51	

1	0.00000000	-1164.66975	854.67579	-420.79651	-1137.16364	758.18792	-434.81280	-1230.37109	429.29426	-470.56189	-1312.97651	382.33574	-517.21176	-1117.73021	356.23749	-427.45737	-1059.87216	384.39033	-491.20322	-1185.72459	854.75343	-726.58731	-1191.77608	763.74539	-747.11794	-1252.90283	431.81146	-683.27502	-1330.72753	383.12684	-626.79465	-1142.06006	359.33273	-720.93384	-1081.17322	385.54043	-658.18211	-1160.89986	649.51569	-413.50064	-1197.98767	779.03413	-391.86978	-1239.29644	670.35200	-389.41147	-1280.56210	777.49401	-735.90077	-1284.76597	655.36656	-728.93231	-1084.57036	1175.98510	-389.50089	-1079.52555	1066.00379	-403.60052	-1132.81682	1037.06473	-376.22699	-1195.21254	1165.91364	-382.35878	-1183.93316	1053.51735	-390.87734	-1092.20636	1141.65701	-744.84715	-1092.54785	1001.76513	-731.97276	-1202.93856	1140.33443	-754.76348	-1207.57529	1003.03380	-744.61295	-1073.24436	1395.02087	-433.11556	-1258.25080	1398.99549	-500.21722	-1075.94222	1392.19139	-684.41969	-1262.26000	1401.89941	-609.71917	-1185.40467	1954.35571	-556.30079	-1136.37313	1883.27831	-390.71298	-1162.96702	1887.26173	-724.95822	-1078.72740	1848.08713	-530.24434	-1082.52855	1846.63719	-587.35341	-1135.81169	1722.51429	-328.96401	-1241.97718	1521.29410	-370.68260	-1201.95579	1538.04998	-299.51059	-1133.68413	1377.01154	-289.33099	-1086.58380	1292.20138	-304.66808	-1127.80755	1291.99445	-281.84580	-1194.43743	1760.56398	-802.46774	-1258.34786	1527.40714	-730.35386	-1240.95449	1538.36283	-809.82968	-1196.06629	1477.06852	-831.17650	-1133.08702	1308.43047	-831.01968	-1172.74545	1299.44390	-842.59856	-1149.06362	1274.94739	-452.28638	-1157.16656	1280.01845	-659.02629	-1126.78807	1305.55309	-468.85916	-1132.85527	1309.94765	-634.57070	
2	0.01000000	-1164.53814	854.53872	-420.77066	-1137.02560	758.13333	-434.86764	-1230.35287	429.29237	-470.53683	-1313.81554	382.32009	-517.10992	-1117.69362	356.27047	-427.42595	-1059.81604	384.40925	-491.17681	-1185.65619	854.76390	-726.65955	-1191.72939	763.73289	-747.11952	-1252.87722	431.77822	-683.34864	-1331.26723	383.31753	-626.62940	-1142.05414	359.34881	-720.93717	-1081.14206	385.60405	-658.24334	-1160.86265	649.49199	-413.44656	-1198.00875	779.04311	-391.83592	-1238.04823	669.74731	-390.11007	-1280.52947	777.52120	-736.08233	-1284.71808	655.37786	-728.95715	-1084.69768	1175.88039	-389.77747	-1079.23509	1066.14980	-403.69008	-1132.70411	1037.09705	-376.20606	-1195.07905	1165.83706	-382.48499	-1183.78970	1053.37274	-390.89746	-1092.10410	1141.67098	-744.89123	-1092.51719	1001.73028	-732.03568	-1202.87794	1140.28474	-754.71560	-1207.52898	1003.02200	-744.63522	-1073.10003	1394.94183	-433.16502	-1258.21516	1398.99870	-500.22956	-1075.84831	1392.18348	-684.55115	-1262.19470	1402.03941	-609.93665	-1185.02742	1954.41118	-556.36824	-1135.86739	1883.18248	-390.84470	-1162.65340	1887.24103	-724.97443	-1078.43374	1848.14906	-530.42752	-1082.10233	1846.68540	-587.12420	-1135.36062	1722.50054	-329.14505	-1241.88192	1521.22816	-370.54170	-1201.60566	1538.07633	-299.53574	-1133.37570	1377.02243	-289.43854	-1086.31668	1292.21478	-304.74998	-1127.46320	1291.99559	-281.76685	-1194.15562	1760.59376	-802.55981	-1258.13879	1527.43690	-730.48751	-1240.66124	1538.41437	-809.95093	-1195.82387	1477.11657	-831.41650	-1132.91690	1308.40258	-831.07648	-1172.48420	1299.50943	-842.76595	-1149.05543	1274.90526	-452.44130	-1157.15220	1280.07019	-659.17911	-1126.71716	1305.37775	-469.04599	-1132.73035	1309.97228	-634.80790	
3	0.02000000	-1164.43449	854.48357	-420.77706	-1136.95367	758.08301	-434.89995	-1230.35078	429.29758	-470.54556	-1313.60629	382.34499	-517.15465	-1117.69240	356.27558	-427.41653	-1059.76462	384.45179	-491.18795	-1185.59591	854.74268	-726.73370	-1191.68036	763.72124	-747.12050	-1252.86649	431.77612	-683.37087	-1331.39828	383.41458	-626.58658	-1142.05260	359.35923	-720.92500	-1081.13064	385.62827	-658.26051	-1160.83486	649.49045	-413.41173	-1197.80381	779.03309	-391.81208	-1238.08197	669.75865	-390.15735	-1280.43687	777.54916	-736.22600	-1284.66905	655.37516	-728.98654	-1084.62094	1175.74134	-389.86750	-1079.13301	1066.12019	-403.75387	-1132.57674	1037.08404	-376.28294	-1194.90255	1165.83466	-382.64214	-1183.70086	1053.31078	-390.92643	-1092.02501	1141.67626	-744.91168	-1092.48322	1001.70630	-732.09953	-1202.80804	1140.23030	-754.65341	-1207.48935	1003.01212	-744.64414	-1072.95200	1394.86276	-433.24014	-1258.07310	1398.89714	-500.39691	-1075.76325	1392.15782	-684.59793	-1262.07632	1402.04598	-610.00020	-1184.60130	1954.37001	-556.36971	-1135.42087	1883.12706	-390.84064	-1162.30383	1887.25516	-725.08503	-1078.03845	1848.15736	-530.53216	-1081.75478	1846.70660	-587.10022	-1134.82859	1722.42110	-329.39589	-1241.52128	1521.27071	-370.54229	-1201.25111	1538.08743	-299.52491	-1133.07834	1377.00096	-289.50941	-1086.01209	1292.27016	-304.81930	-1127.16324	1291.95818	-281.81861	-1193.87511	1760.60052	-802.54817	-1257.87660	1527.47999	-730.58613	-1240.39826	1538.40497	-810.06370	-1195.56506	1477.15316	-831.62651	-1132.73717	1308.37640	-831.12685	-1172.27644	1299.52542	-842.85132	-1148.93802	1274.82117	-452.56836	-1157.03224	1280.05254	-659.30462	-1126.53179	1305.21515	-469.19423	-1132.58485	1309.97632	-634.93175	
4	0.03000000	-1164.36629	854.45345	-420.81317	-1136.92154	758.03619	-434.88993	-1230.34368	429.29147	-470.54733	-1313.08634	382.29262	-517.14635	-1117.71101	356.26254	-427.43561	-1059.69605	384.51657	-491.22586	-1185.54233	854.68731	-726.74031	-1191.63614	763.71538	-747.12930	-1252.87345	431.79396	-683.34033	-1331.25240	383.45723	-626.66327	-1142.04837	359.35913	-720.87782	-1081.13352	385.60623	-658.23846	-1160.80745	649.47176	-413.37823	-1197.61126	779.01819	-391.80355	-1238.92341	670.20496	-389.76512	-1280.34643	777.54326	-736.26375	-1284.63541	655.37335	-729.00859	-1084.40680	1175.48767	-389.79148	-1079.16471	1066.06079	-403.78677	-1132.45006	1037.07181	-376.37577	-1194.63893	1165.78390	-382.85789	-1183.63044	1053.27618	-390.99361	-1091.94515	1141.66796	-744.93412	-1092.42648	1001.69612	-732.09365	-1202.72520	1140.16029	-754.56647	-1207.43666	1003.01620	-744.66736	-1072.82028	1394.83766	-433.32376	-1257.93049	1398.83227	-500.56503	-1075.67954	1392.12693	-684.58689	-1261.94908	1401.97894	-609.99485	-1184.18732	1954.31056	-556.39548	-1135.00340	1883.12114	-390.83605	-1161.93349	1887.28376	-725.21984	-1077.59966	1848.16929	-530.59491	-1081.42821	1846.70133	-587.24290	-1134.22590	1722.26272	-329.61118	-1241.12565	1521.35741	-370.50193	-1200.91929	1538.09197	-299.42905	-1132.76864	1376.99247	-289.52985	-1085.70877	1292.35421	-304.90298	-1126.86633	1291.97861	-281.93854	-1193.59822	1760.55579	-802.38084	-1257.39293	1527.60708	-730.63957	-1240.15345	1538.40912	-810.19211	-1195.32250	1477.16214	-831.69668	-1132.54049	1308.36044	-831.22433	-1172.11965	1299.51628	-842.87581	-1148.79349	1274.78139	-452.62285	-1156.88663	1280.00413	-659.35935	-1126.37778	1305.19956	-469.25499	-1132.46232	1309.96406	-634.92863	
5	0.04000000	-1164.29890	854.36512	-420.83877	-1136.85624	758.03124	-434.88293	-1230.32652	429.26197	-470.51841	-1313.08607	382.13796	-517.01392	-1117.72542	356.25533	-427.46015	-1059.65559	384.53707	-491.23300	-1185.49515	854.65441	-726.71479	-1191.59794	763.70279	-747.14187	-1252.88613	431.79501	-683.31737	-1331.18609	383.43352	-626.69904	-1142.04764	359.35069	-720.84640	-1081.14302	385.57444	-658.21282	-1160.74309	649.44597	-413.37242	-1197.62273	779.05390	-391.80248	-1239.37765	670.49629	-389.50998	-1280.32509	777.50607	-736.20482	-1284.62291	655.37668	-729.01765	-1084.19004	1175.25759	-389.72050	-1079.11137	1066.08318	-403.81950	-1132.32063	1037.08207	-376.36894	-1194.37074	1165.61820	-383.02814	-1183.55098	1053.18472	-391.09895	-1091.78868	1141.64327	-745.02456	-1092.38143	1001.65613	-732.07647	-1202.64320	1140.08553	-754.48832	-1207.37666	1003.02239	-744.71712	-1072.70210	1394.85504	-433.35847	-1257.81664	1398.85574	-500.68880	-1075.59218	1392.10827	-684.59126	-1261.85515	1401.95619	-610.04941	-1183.81833	1954.31557	-556.49491	-1134.52423	1883.11929	-390.96447	-1161.57004	1887.29749	-725.28815	-1077.19392	1848.20920	-530.70152	-1081.01462	1846.68770	-587.41002	-1133.62740	1722.08013	-329.69040	-1241.07729	1521.34514	-370.24739	-1200.67149	1538.12065	-299.29892	-1132.46137	1377.04587	-289.53221	-1085.43935	1292.42811	-304.98866	-1126.49921	1292.11728	-281.93924	-1193.30515	1760.49349	-802.21353	-1256.77103	1527.79895	-730.67168	-1239.92530	1538.47903	-810.33015	-1195.10867	1477.16648	-831.69309	-1132.34486	1308.36530	-831.37689	-1171.98925	1299.51761	-842.89274	-1148.70108	1274.80199	-452.65106	-1156.77311	1279.98369	-659.38939	-1126.26829	1305.25223	-469.23807	-1132.38765	1309.95045	-634.89210	
